<svg id="left-shapes" xmlns="http://www.w3.org/2000/svg" width="39.998" height="21.472" viewBox="0 0 28 15.031">
  <defs>
    <style>
      .cls-1, .cls-2, .cls-3 {
        fill: #00a99d;
        fill-rule: evenodd;
      }

      .cls-1 {
        opacity: 0.4;
      }

      .cls-2 {
        opacity: 0.7;
      }
    </style>
  </defs>
  <path id="shape3" class="cls-1" d="M521.386,406.318l-2.793,2.777a1.955,1.955,0,0,0,0,2.776l2.793,2.776a1.983,1.983,0,0,0,2.793,0l2.793-2.776a1.955,1.955,0,0,0,0-2.776l-2.793-2.777A1.985,1.985,0,0,0,521.386,406.318Z" transform="translate(-518.031 -402.969)"/>
  <path id="shape2" class="cls-2" d="M529.249,404.93l-4.19,4.165a1.955,1.955,0,0,0,0,2.776l4.19,4.164a1.983,1.983,0,0,0,2.793,0l4.189-4.164a1.955,1.955,0,0,0,0-2.776l-4.189-4.165A1.985,1.985,0,0,0,529.249,404.93Z" transform="translate(-518.031 -402.969)"/>
  <path id="shape1" class="cls-3" d="M537.073,403.542l-5.586,5.553a1.955,1.955,0,0,0,0,2.776l5.586,5.553a1.985,1.985,0,0,0,2.793,0l5.586-5.553a1.953,1.953,0,0,0,0-2.776l-5.586-5.553A1.983,1.983,0,0,0,537.073,403.542Z" transform="translate(-518.031 -402.969)"/>
</svg>
