<svg id="left-shapes" xmlns="http://www.w3.org/2000/svg" width="170" height="15.031" viewBox="0 0 170 15.031">
  <defs>
    <style>
      .cls-1, .cls-2, .cls-3 {
        fill: #00a99d;
        fill-rule: evenodd;
      }

      .cls-1 {
        opacity: 0.4;
      }

      .cls-2 {
        opacity: 0.7;
      }

      .cls-4 {
        fill: #dedede;
      }
    </style>
  </defs>
  <path id="shape3" class="cls-1" d="M853.614,406.318l2.793,2.777a1.955,1.955,0,0,1,0,2.776l-2.793,2.776a1.983,1.983,0,0,1-2.793,0l-2.793-2.776a1.955,1.955,0,0,1,0-2.776l2.793-2.777A1.985,1.985,0,0,1,853.614,406.318Z" transform="translate(-829 -402.969)"/>
  <path id="shape2" class="cls-2" d="M845.751,404.93l4.19,4.165a1.955,1.955,0,0,1,0,2.776l-4.19,4.164a1.983,1.983,0,0,1-2.793,0l-4.189-4.164a1.955,1.955,0,0,1,0-2.776l4.189-4.165A1.985,1.985,0,0,1,845.751,404.93Z" transform="translate(-829 -402.969)"/>
  <path id="shape1" class="cls-3" d="M837.927,403.542l5.586,5.553a1.955,1.955,0,0,1,0,2.776l-5.586,5.553a1.985,1.985,0,0,1-2.793,0l-5.586-5.553a1.953,1.953,0,0,1,0-2.776l5.586-5.553A1.983,1.983,0,0,1,837.927,403.542Z" transform="translate(-829 -402.969)"/>
  <rect class="cls-4" x="38" y="5.031" width="132" height="1"/>
  <rect class="cls-4" x="38" y="10.031" width="132" height="1"/>
</svg>
