<svg id="right-shapes" xmlns="http://www.w3.org/2000/svg" width="40" height="21.405" viewBox="0 0 28.031 15">
  <defs>
    <style>
      .cls-1, .cls-2, .cls-3 {
        fill: #00a99d;
        fill-rule: evenodd;
      }

      .cls-1 {
        opacity: 0.4;
      }

      .cls-2 {
        opacity: 0.7;
      }
    </style>
  </defs>
  <path id="shape3" class="cls-1" d="M853.644,406.343l2.793,2.77a1.949,1.949,0,0,1,0,2.771l-2.793,2.771a1.986,1.986,0,0,1-2.793,0l-2.793-2.771a1.949,1.949,0,0,1,0-2.771l2.793-2.77A1.985,1.985,0,0,1,853.644,406.343Z" transform="translate(-829 -403)"/>
  <path id="shape2" class="cls-2" d="M845.782,404.957l4.189,4.156a1.947,1.947,0,0,1,0,2.771l-4.189,4.156a1.986,1.986,0,0,1-2.793,0l-4.19-4.156a1.949,1.949,0,0,1,0-2.771l4.19-4.156A1.986,1.986,0,0,1,845.782,404.957Z" transform="translate(-829 -403)"/>
  <path id="shape1" class="cls-3" d="M837.957,403.572l5.586,5.541a1.949,1.949,0,0,1,0,2.771l-5.586,5.541a1.986,1.986,0,0,1-2.793,0l-5.586-5.541a1.947,1.947,0,0,1,0-2.771l5.586-5.541A1.986,1.986,0,0,1,837.957,403.572Z" transform="translate(-829 -403)"/>
</svg>
